PathFileType	4	(X/Y/Z) abd_0kg_2.trc																										
DataRate	CameraRate	NumFrames	NumMarkers	Units	OrigDataRate	OrigDataStartFrame	OrigNumFrames																					
100	100	34	9	mm	100	424	846																					
Frame#	Time	gu			centelbow			EpL			centpxt8			centijc7			ij			ts			aa			ai		
		X1	Y1	Z1	X2	Y2	Z2	X3	Y3	Z3	X4	Y4	Z4	X5	Y5	Z5	X6	Y6	Z6	X7	Y7	Z7	X8	Y8	Z8	X9	Y9	Z9  
423	4.23	-111.265	66.467	96.61	-52.655	288.666	187.036	-73.64	298.825	164.768	-46.816	-153.158	-8.669	-46.816	31.938	-8.669	0	0	0	-148.895	-20.015	48.418	-155.471	89.29	95.683	-145.607	-60.042	154.591
424	4.24	-111.239	66.629	96.515	-52.653	288.845	186.913	-73.649	298.998	164.654	-46.816	-153.158	-8.669	-46.816	31.938	-8.669	0	0	0	-148.873	-19.99	48.192	-155.46	89.323	95.436	-145.547	-59.993	154.372
425	4.25	-111.356	66.794	96.402	-52.744	289.016	186.768	-73.757	299.167	164.523	-46.816	-153.158	-8.669	-46.816	31.938	-8.669	0	0	0	-148.946	-19.962	47.946	-155.567	89.361	95.162	-145.58	-59.936	154.137
426	4.26	-111.638	66.864	96.381	-52.911	289.069	186.718	-73.944	299.225	164.493	-46.816	-153.158	-8.669	-46.816	31.938	-8.669	0	0	0	-149.029	-19.973	47.804	-155.688	89.361	94.992	-145.638	-59.916	154.005
427	4.27	-111.949	66.921	96.413	-53.046	289.089	186.723	-74.097	299.257	164.521	-46.816	-153.158	-8.669	-46.816	31.938	-8.669	0	0	0	-148.99	-19.939	47.751	-155.691	89.407	94.904	-145.598	-59.849	153.964
428	4.28	-112.187	67.041	96.374	-53.11	289.173	186.66	-74.171	299.352	164.473	-46.816	-153.158	-8.669	-46.816	31.938	-8.669	0	0	0	-148.909	-19.844	47.736	-155.665	89.515	94.849	-145.539	-59.716	153.964
429	4.29	-112.373	67.151	96.238	-53.164	289.248	186.524	-74.225	299.44	164.342	-46.816	-153.158	-8.669	-46.816	31.938	-8.669	0	0	0	-148.923	-19.824	47.729	-155.739	89.547	94.806	-145.59	-59.663	153.971
430	4.3	-112.574	67.135	96.106	-53.275	289.192	186.431	-74.325	299.397	164.246	-46.816	-153.158	-8.669	-46.816	31.938	-8.669	0	0	0	-148.977	-19.96	47.731	-155.842	89.419	94.785	-145.691	-59.779	153.982
431	4.31	-112.763	67.032	96.014	-53.407	289.05	186.399	-74.443	299.267	164.206	-46.816	-153.158	-8.669	-46.816	31.938	-8.669	0	0	0	-148.961	-20.146	47.724	-155.871	89.235	94.764	-145.724	-59.955	153.98
432	4.32	-112.868	67.005	95.923	-53.505	289.003	186.351	-74.531	299.226	164.151	-46.816	-153.158	-8.669	-46.816	31.938	-8.669	0	0	0	-148.898	-20.237	47.65	-155.87	89.146	94.677	-145.699	-60.035	153.911
433	4.33	-112.913	67.103	95.868	-53.61	289.111	186.312	-74.629	299.331	164.103	-46.816	-153.158	-8.669	-46.816	31.938	-8.669	0	0	0	-148.832	-20.226	47.518	-155.895	89.159	94.526	-145.668	-60.008	153.787
434	4.34	-112.976	67.259	95.886	-53.781	289.292	186.338	-74.79	299.504	164.118	-46.816	-153.158	-8.669	-46.816	31.938	-8.669	0	0	0	-148.706	-20.167	47.414	-155.895	89.216	94.407	-145.599	-59.937	153.689
435	4.35	-113.076	67.43	95.883	-54.005	289.484	186.365	-75.002	299.689	164.129	-46.816	-153.158	-8.669	-46.816	31.938	-8.669	0	0	0	-148.506	-20.071	47.345	-155.873	89.299	94.343	-145.486	-59.851	153.619
436	4.36	-113.155	67.582	95.795	-54.203	289.642	186.337	-75.185	299.844	164.087	-46.816	-153.158	-8.669	-46.816	31.938	-8.669	0	0	0	-148.347	-20.017	47.279	-155.962	89.319	94.317	-145.439	-59.843	153.538
437	4.37	-113.139	67.671	95.719	-54.298	289.725	186.35	-75.265	299.928	164.085	-46.816	-153.158	-8.669	-46.816	31.938	-8.669	0	0	0	-148.247	-20.101	47.243	-156.171	89.178	94.36	-145.473	-60.014	153.473
438	4.38	-113.07	67.697	95.738	-54.351	289.732	186.495	-75.297	299.938	164.212	-46.816	-153.158	-8.669	-46.816	31.938	-8.669	0	0	0	-148.109	-20.272	47.197	-156.375	88.937	94.418	-145.482	-60.297	153.389
439	4.39	-113.111	67.669	95.801	-54.552	289.665	186.757	-75.467	299.88	164.449	-46.816	-153.158	-8.669	-46.816	31.938	-8.669	0	0	0	-147.973	-20.415	47.063	-156.577	88.723	94.387	-145.485	-60.553	153.215
440	4.4	-113.305	67.573	95.867	-54.972	289.504	187.126	-75.847	299.734	164.787	-46.816	-153.158	-8.669	-46.816	31.938	-8.669	0	0	0	-147.843	-20.504	46.933	-156.754	88.574	94.342	-145.473	-60.734	153.053
441	4.41	-113.515	67.434	95.961	-55.498	289.274	187.641	-76.326	299.522	165.268	-46.816	-153.158	-8.669	-46.816	31.938	-8.669	0	0	0	-147.535	-20.572	46.937	-156.723	88.457	94.404	-145.263	-60.869	153.034
442	4.42	-113.676	67.361	96.046	-56.087	289.084	188.28	-76.861	299.356	165.867	-46.816	-153.158	-8.669	-46.816	31.938	-8.669	0	0	0	-147.05	-20.619	46.97	-156.511	88.367	94.481	-144.865	-60.97	153.049
443	4.43	-113.854	67.448	96.058	-56.826	289.016	189.009	-77.532	299.318	166.546	-46.816	-153.158	-8.669	-46.816	31.938	-8.669	0	0	0	-146.624	-20.585	46.889	-156.399	88.349	94.455	-144.534	-61	152.945
444	4.44	-114.025	67.633	96.059	-57.705	289	189.915	-78.323	299.341	167.39	-46.816	-153.158	-8.669	-46.816	31.938	-8.669	0	0	0	-146.293	-20.47	46.731	-156.455	88.393	94.38	-144.319	-60.981	152.752
445	4.45	-114.09	67.81	96.085	-58.623	288.935	191.012	-79.138	299.323	168.415	-46.816	-153.158	-8.669	-46.816	31.938	-8.669	0	0	0	-145.922	-20.333	46.544	-156.521	88.441	94.302	-144.087	-60.969	152.52
446	4.46	-114.078	67.947	96.054	-59.566	288.803	192.155	-79.968	299.241	169.477	-46.816	-153.158	-8.669	-46.816	31.938	-8.669	0	0	0	-145.543	-20.199	46.355	-156.575	88.475	94.241	-143.866	-60.982	152.278
447	4.47	-114.073	68.038	95.978	-60.56	288.607	193.292	-80.842	299.099	170.533	-46.816	-153.158	-8.669	-46.816	31.938	-8.669	0	0	0	-145.252	-20.141	46.262	-156.676	88.424	94.305	-143.757	-61.102	152.119
448	4.48	-114.058	68.092	95.966	-61.556	288.367	194.49	-81.719	298.912	171.65	-46.816	-153.158	-8.669	-46.816	31.938	-8.669	0	0	0	-144.98	-20.259	46.223	-156.768	88.185	94.449	-143.69	-61.427	152.002
449	4.49	-114.023	68.12	96.042	-62.531	288.101	195.748	-82.576	298.699	172.828	-46.816	-153.158	-8.669	-46.816	31.938	-8.669	0	0	0	-144.663	-20.532	46.032	-156.829	87.794	94.429	-143.584	-61.898	151.737
450	4.5	-114.077	68.101	96.102	-63.59	287.778	196.985	-83.522	298.429	173.992	-46.816	-153.158	-8.669	-46.816	31.938	-8.669	0	0	0	-144.394	-20.862	45.674	-156.989	87.356	94.204	-143.539	-62.393	151.315
451	4.51	-114.356	68.085	96.048	-64.931	287.43	198.171	-84.757	298.138	175.112	-46.816	-153.158	-8.669	-46.816	31.938	-8.669	0	0	0	-144.172	-21.125	45.335	-157.275	86.983	93.974	-143.583	-62.807	150.919
452	4.52	-114.824	68.205	95.928	-66.588	287.195	199.374	-86.31	297.958	176.252	-46.816	-153.158	-8.669	-46.816	31.938	-8.669	0	0	0	-143.835	-21.19	45.084	-157.54	86.797	93.828	-143.55	-63.029	150.607
453	4.53	-115.199	68.431	95.887	-68.239	287.056	200.681	-87.849	297.875	177.49	-46.816	-153.158	-8.669	-46.816	31.938	-8.669	0	0	0	-143.384	-21.106	44.851	-157.784	86.738	93.71	-143.418	-63.122	150.304
454	4.54	-115.292	68.597	96.036	-69.582	286.842	202.169	-89.068	297.72	178.901	-46.816	-153.158	-8.669	-46.816	31.938	-8.669	0	0	0	-142.97	-21.086	44.66	-158.118	86.593	93.656	-143.303	-63.306	150.031
455	4.55	-115.305	68.757	96.365	-70.79	286.571	203.881	-90.15	297.521	180.541	-46.816	-153.158	-8.669	-46.816	31.938	-8.669	0	0	0	-142.553	-21.092	44.527	-158.419	86.405	93.697	-143.123	-63.547	149.803
456	4.56	-115.515	69.001	96.684	-72.159	286.291	205.723	-91.398	297.332	182.327	-46.816	-153.158	-8.669	-46.816	31.938	-8.669	0	0	0	-142.031	-20.863	44.286	-158.498	86.439	93.681	-142.777	-63.594	149.448
